<?xml version="1.0" encoding="UTF-8" standalone="no"?>
<svg
   width="48"
   height="48"
   viewBox="0 0 48 48"
   version="1.1"
   id="svg6"
   sodipodi:docname="keyboard.svg"
   inkscape:version="1.2.2 (732a01da63, 2022-12-09)"
   xmlns:inkscape="http://www.inkscape.org/namespaces/inkscape"
   xmlns:sodipodi="http://sodipodi.sourceforge.net/DTD/sodipodi-0.dtd"
   xmlns="http://www.w3.org/2000/svg"
   xmlns:svg="http://www.w3.org/2000/svg">
  <defs
     id="defs10" />
  <sodipodi:namedview
     id="namedview8"
     pagecolor="#ffffff"
     bordercolor="#111111"
     borderopacity="1"
     inkscape:showpageshadow="0"
     inkscape:pageopacity="0"
     inkscape:pagecheckerboard="1"
     inkscape:deskcolor="#d1d1d1"
     showgrid="false"
     inkscape:zoom="17.645833"
     inkscape:cx="24.028335"
     inkscape:cy="24.028335"
     inkscape:window-width="1920"
     inkscape:window-height="1027"
     inkscape:window-x="-8"
     inkscape:window-y="-8"
     inkscape:window-maximized="1"
     inkscape:current-layer="svg6" />
  <path
     d="M 40,10 H 8 C 5.79,10 4.02,11.79 4.02,14 L 4,30 c 0,2.21 1.79,4 4,4 h 32 c 2.21,0 4,-1.79 4,-4 V 14 c 0,-2.21 -1.79,-4 -4,-4 z m -18,4 h 4 v 4 h -4 z m 0,6 h 4 v 4 h -4 z m -6,-6 h 4 v 4 h -4 z m 0,6 h 4 v 4 h -4 z m -2,4 h -4 v -4 h 4 z m 0,-6 h -4 v -4 h 4 z M 32,30 H 16 v -4 h 16 z m 0,-6 h -4 v -4 h 4 z m 0,-6 h -4 v -4 h 4 z m 6,6 h -4 v -4 h 4 z m 0,-6 h -4 v -4 h 4 z"
     id="path2"
     sodipodi:nodetypes="ssccsssssccccccccccccccccccccccccccccccccccccccccccccccccccccccc"
     style="fill:#ffffff" />
  <path
     d="M0 0h48v48h-48zm0 0h48v48h-48z"
     fill="none"
     id="path4" />
</svg>
